<?xml version="1.0" standalone="no"?>
<!DOCTYPE svg PUBLIC "-//W3C//DTD SVG 20010904//EN"
 "http://www.w3.org/TR/2001/REC-SVG-20010904/DTD/svg10.dtd">
<svg version="1.0" xmlns="http://www.w3.org/2000/svg"
 width="48.000000pt" height="48.000000pt" viewBox="0 0 48.000000 48.000000"
 preserveAspectRatio="xMidYMid meet">

<g transform="translate(0.000000,48.000000) scale(0.100000,-0.100000)"
fill="#99415B" stroke="none">
<path d="M227 373 l26 -76 30 58 29 59 28 -53 c30 -59 26 -61 60 37 l19 52
-109 0 -109 0 26 -77z"/>
<path d="M70 265 c-19 -23 -8 -50 20 -50 19 0 26 6 28 24 5 35 -26 53 -48 26z"/>
<path d="M211 261 c-13 -24 9 -57 33 -48 23 9 31 34 16 52 -17 20 -37 19 -49
-4z"/>
<path d="M362 268 c-30 -30 1 -73 36 -51 23 14 25 29 7 47 -20 19 -27 20 -43
4z"/>
<path d="M287 205 c-10 -14 -26 -25 -36 -25 -11 0 -33 -14 -51 -30 -34 -32
-72 -46 -90 -35 -7 4 -18 21 -25 39 l-13 31 -11 -28 c-27 -69 0 -127 60 -127
17 0 63 15 102 34 40 19 92 37 116 41 72 12 115 75 51 75 -20 0 -39 9 -54 25
-13 14 -25 25 -27 25 -2 0 -12 -12 -22 -25z"/>
</g>
</svg>
